<?xml version="1.0" encoding="UTF-8"?>
<svg width="2500" height="2500" viewBox="0 0 999.94 999.94" xmlns="http://www.w3.org/2000/svg">
<path fill="#C5C5C5" d="m0 499.97c0-138.01 48.825-255.84 146.48-353.49 97.649-97.65 215.48-146.48 353.49-146.48 138.01 0 255.84 48.825 353.49 146.48 97.649 97.65 146.48 215.48 146.48 353.49s-48.825 255.84-146.48 353.49-215.48 146.48-353.49 146.48c-138.01 0-255.84-48.825-353.49-146.48-97.651-97.649-146.48-215.48-146.48-353.49zm54.684 0c0 122.39 43.617 227.2 130.85 314.43 87.234 87.233 192.04 130.85 314.43 130.85 122.39 0 227.2-43.617 314.43-130.85s130.85-192.04 130.85-314.43c0-122.39-43.616-227.2-130.85-314.43-87.234-87.234-192.05-130.85-314.43-130.85-122.39 0-227.2 43.617-314.43 130.85-87.234 87.234-130.85 192.04-130.85 314.43zm140.62 107.42c-2.604-2.604-2.604-5.208 0-7.812 5.207-5.208 11.718-7.161 19.529-5.859 7.812 1.302 12.369 2.604 13.671 3.906 9.114 3.906 19.205 12.694 30.271 26.366 11.066 13.671 19.855 23.11 26.366 28.318 31.248 26.04 63.146 27.993 95.696 5.859 2.604-9.114 6.836-16.926 12.694-23.437 5.858-6.51 11.393-11.066 16.601-13.671 5.209-2.604 14.323-6.51 27.343-11.718-42.967-3.906-77.795-11.393-104.49-22.46s-47.849-25.063-63.473-41.989c-20.832-23.436-33.527-54.033-38.084-91.791-4.558-37.758-1.628-72.261 8.789-103.51 7.812-19.53 18.879-37.106 33.2-52.731-10.416-32.55-8.463-69.657 5.859-111.32 41.664 2.604 79.422 16.926 113.27 42.966 65.1-16.926 132.8-17.577 203.11-1.953 9.114-6.51 23.111-14.647 41.989-24.413 18.879-9.765 42.641-15.299 71.285-16.601 5.208 14.322 8.789 31.248 10.742 50.778s0.977 37.758-2.929 54.684c29.945 31.248 45.569 72.912 46.871 124.99 0 41.664-7.16 76.167-21.482 103.51s-39.711 50.127-76.167 68.354c-24.738 11.719-57.288 18.879-97.65 21.483 18.229 9.114 31.574 18.554 40.037 28.319 8.464 9.765 13.997 25.063 16.602 45.895v61.521l1.952 59.566c3.906 6.511 8.464 12.044 13.672 16.602 5.208 4.557 9.765 7.812 13.671 9.765 3.905 1.953 5.208 4.883 3.905 8.789-1.302 3.906-6.51 5.859-15.623 5.859-22.135 0-39.711-7.812-52.731-23.437-3.906-6.51-5.859-14.321-5.859-23.436v-93.744c0-10.416-2.604-17.903-7.812-22.46-5.208-4.558-10.416-7.487-15.624-8.789v123.04c0 22.134 2.604 36.456 7.812 42.966s8.463 13.021 9.766 19.53c1.302 1.302 0.325 2.278-2.93 2.929-3.254 0.65-8.788-0.325-16.601-2.929-16.926-3.906-28.644-12.695-35.154-26.366s-9.765-28.319-9.765-43.943v-121.08h-25.389v121.09c0 15.624-3.256 30.598-9.766 44.919-9.113 18.229-26.04 27.993-50.777 29.295-3.906-1.302-5.859-2.604-5.859-3.905 1.302-1.303 5.208-7.812 11.718-19.53 1.302-2.604 2.93-7.812 4.883-15.624 1.954-7.812 2.93-16.926 2.93-27.342v-123.04c-5.208 1.302-10.091 4.231-14.648 8.789s-6.836 12.044-6.836 22.46v93.744c0 9.113-1.953 16.926-5.859 23.436-11.718 15.624-29.295 23.437-52.73 23.437-9.114 0-14.322-1.953-15.624-5.859-1.303-2.604-0.977-4.883 0.977-6.836s4.883-4.232 8.789-6.836 6.51-4.558 7.812-5.859c5.208-3.906 9.113-9.114 11.718-15.624 3.906-5.208 4.882-18.879 2.929-41.013s-2.279-36.456-0.977-42.966c-33.853 11.718-68.355 5.858-103.51-17.577-10.416-10.416-20.832-25.39-31.248-44.919-7.812-14.323-23.436-31.249-46.871-50.779z"/>
</svg>