<svg width="74" height="73" viewBox="0 0 74 73" fill="none" xmlns="http://www.w3.org/2000/svg">
<ellipse cx="11.0273" cy="47.9418" rx="4" ry="8" transform="rotate(25.2173 11.0273 47.9418)" fill="white"/>
<ellipse rx="4" ry="8" transform="matrix(-0.904698 0.426053 0.426053 0.904698 63.0272 48.9418)" fill="white"/>
<path d="M6.0424 5.96486C10.0934 3.17716 19.5878 1.12651 25.157 15.2254" stroke="white" stroke-width="4"/>
<path d="M67.242 5.96486C63.191 3.17716 53.6966 1.12651 48.1274 15.2254" stroke="white" stroke-width="4"/>
<circle cx="37" cy="34" r="26" fill="#5CC780"/>
<circle cx="37" cy="35" r="26" fill="white"/>
<ellipse cx="37" cy="41" rx="23" ry="26" fill="#5CC780"/>
<ellipse cx="37" cy="35.5" rx="19" ry="18.5" fill="white"/>
<rect x="18" y="33" width="38" height="21" fill="#5CC780"/>
<circle cx="27.5" cy="33.5" r="5.5" fill="white"/>
<circle cx="46.5" cy="33.5" r="5.5" fill="white"/>
<ellipse cx="6" cy="7.5" rx="5" ry="5.5" fill="#5CC780"/>
<ellipse cx="68" cy="7.5" rx="5" ry="5.5" fill="#5CC780"/>
<ellipse cx="69" cy="7.5" rx="5" ry="5.5" fill="white"/>
<ellipse cx="5" cy="7.5" rx="5" ry="5.5" fill="white"/>
<path d="M36.4222 65.4948C18.8471 66.7258 14.1511 54.7039 14 48.5391" stroke="white" stroke-width="3"/>
<path d="M38.0009 65.4948C55.576 66.7258 60.272 54.7039 60.4231 48.5391" stroke="white" stroke-width="3"/>
<rect x="32" y="66" width="10" height="1" fill="white"/>
<rect x="32" y="64" width="10" height="3" fill="white"/>
<ellipse cx="27.0564" cy="59.1067" rx="5.61704" ry="12.4139" transform="rotate(-10.7441 27.0564 59.1067)" fill="#5CC780"/>
<ellipse rx="5.5618" ry="12.1493" transform="matrix(-0.982469 -0.186424 -0.186424 0.982469 47.1321 59.0496)" fill="#5CC780"/>
<ellipse cx="27" cy="59" rx="5" ry="12" transform="rotate(-10.7441 27 59)" fill="white"/>
<ellipse cx="27.1183" cy="56.9418" rx="3.5" ry="10" transform="rotate(-10.7441 27.1183 56.9418)" fill="#5CC780"/>
<ellipse cx="27.6097" cy="56.8486" rx="3" ry="10" transform="rotate(-10.7441 27.6097 56.8486)" fill="white"/>
<ellipse cx="27.6097" cy="56.8486" rx="2" ry="10" transform="rotate(-10.7441 27.6097 56.8486)" fill="#5CC780"/>
<ellipse cx="28.1009" cy="56.7554" rx="1.5" ry="10" transform="rotate(-10.7441 28.1009 56.7554)" fill="white"/>
<rect x="22.9341" y="53.6645" width="6" height="14" transform="rotate(-10.7441 22.9341 53.6645)" fill="white"/>
<ellipse rx="5" ry="12" transform="matrix(-0.982469 -0.186424 -0.186424 0.982469 47.1494 58.7217)" fill="white"/>
<ellipse rx="3.5" ry="10" transform="matrix(-0.982469 -0.186424 -0.186424 0.982469 47.0311 56.6636)" fill="#5CC780"/>
<ellipse rx="3" ry="10" transform="matrix(-0.982469 -0.186424 -0.186424 0.982469 46.5397 56.5704)" fill="white"/>
<ellipse rx="2" ry="10" transform="matrix(-0.982469 -0.186424 -0.186424 0.982469 46.5397 56.5704)" fill="#5CC780"/>
<ellipse rx="1.5" ry="10" transform="matrix(-0.982469 -0.186424 -0.186424 0.982469 46.0485 56.4772)" fill="white"/>
<rect width="6" height="14" transform="matrix(-0.982469 -0.186424 -0.186424 0.982469 51.2153 53.3862)" fill="white"/>
<rect x="51.8469" y="38" width="1" height="6" transform="rotate(28.326 51.8469 38)" fill="white"/>
<rect x="55.8469" y="40" width="1" height="6" transform="rotate(28.326 55.8469 40)" fill="white"/>
<rect x="53.8469" y="39" width="1" height="6" transform="rotate(28.326 53.8469 39)" fill="white"/>
<rect width="1" height="6" transform="matrix(-0.880262 0.474488 0.474488 0.880262 21.8804 38)" fill="white"/>
<rect width="1" height="6" transform="matrix(-0.880262 0.474488 0.474488 0.880262 17.8804 40)" fill="white"/>
<rect width="1" height="6" transform="matrix(-0.880262 0.474488 0.474488 0.880262 19.8804 39)" fill="white"/>
<path d="M36.5 44L32.6029 37.25H40.3971L36.5 44Z" fill="white"/>
<circle cx="25.5" cy="33.5" r="2.5" fill="#5CC780"/>
<circle cx="44.5" cy="33.5" r="2.5" fill="#5CC780"/>
<rect x="22" y="28" width="29" height="5" fill="white"/>
</svg>
