<svg width="78" height="80" viewBox="0 0 78 80" fill="none" xmlns="http://www.w3.org/2000/svg">
<ellipse rx="17.5" ry="18" transform="matrix(-1 0 0 1 17.5 30)" fill="white"/>
<ellipse rx="17.5" ry="18" transform="matrix(-1 0 0 1 60.5 30)" fill="white"/>
<ellipse rx="22" ry="20" transform="matrix(-1 0 0 1 51 52)" fill="white"/>
<ellipse rx="22" ry="20" transform="matrix(-1 0 0 1 28 52)" fill="white"/>
<ellipse cx="59.5" cy="30" rx="16.5" ry="16" fill="#5CC780"/>
<ellipse cx="50" cy="50" rx="21" ry="20" fill="#5CC780"/>
<ellipse rx="16.5" ry="16" transform="matrix(-1 0 0 1 18.5 30)" fill="#5CC780"/>
<ellipse rx="21" ry="20" transform="matrix(-1 0 0 1 29 50)" fill="#5CC780"/>
<ellipse cx="38.5" cy="36.5" rx="22.5" ry="27.5" fill="white"/>
<path d="M44 78.9715C40.4142 78.9715 37.0442 79.2936 33.7778 77.7727C31.6948 76.8028 31.2516 75.1833 32.5852 73.4978C33.246 72.6627 33.9023 71.7985 34.4214 70.88C34.8483 70.1247 34.8 69.5061 34.8 68.6588C34.8 67.3849 33.0653 66.9535 31.8658 66.9136C30.8059 66.8784 29.3255 66.5321 28.3259 66.1997C27.3021 65.8592 26.3089 65.588 25.3444 65.0891C23.8721 64.3274 23.1798 63.0544 23.565 61.44C24.0259 59.5086 23.7654 57.9518 22.8362 56.125C22.3922 55.252 22.1359 54.3007 21.7193 53.4279C21.4846 52.9361 21.1896 52.5296 21 52" stroke="white" stroke-linecap="round"/>
<path d="M43.9399 78.9325C43.1906 78.9325 42.5845 79.0164 41.9851 78.526C41.4332 78.0744 41.001 77.4897 40.5147 76.9778C39.8211 76.2477 39.3678 74.841 39.9785 73.8813C40.8347 72.5357 41.8488 71.615 43.1269 70.681C43.8959 70.119 45.0297 68.243 45.0297 67.3251C45.0297 66.4151 43.5164 66.3233 43.3258 65.4654C43.153 64.6877 43.6809 64.5315 44.2859 64.2978C45.407 63.8646 46.5939 63.5161 47.7456 63.1733C49.2461 62.7268 50.5502 62.3194 51.9319 61.5473C53.8162 60.4943 56.6144 58.6014 56.8535 56.2106C56.9357 55.3885 57.0011 54.2308 56.5507 53.5552" stroke="white" stroke-linecap="round"/>
<path d="M56.5508 53.5552C56.5508 52.098 56.886 50.8476 57.4503 49.5073C57.7722 48.7427 58.1077 47.384 58.1077 46.5492" stroke="white" stroke-linecap="round"/>
<path d="M56.7485 54.8631C56.7485 50.9223 58.4874 47.5073 58.4874 43.4816" stroke="white" stroke-linecap="round"/>
<path d="M25 57.6484C25.4596 58.3774 26.0743 58.7353 26.0743 59.6108C26.0743 60.3433 26.0743 61.0758 26.0743 61.8083C26.0743 62.5159 26.3959 63.1328 27.1315 63.3791C27.6672 63.5584 28.1857 64.0492 28.7599 64.1047C29.4647 64.1729 30.1286 64.5259 30.7976 64.6984C31.3577 64.8428 31.9139 64.9641 32.4857 65.0695C32.9919 65.1627 33.645 65.2005 34.0886 65.4735C34.3672 65.645 34.6369 65.6594 34.8985 65.8858C35.2107 66.1559 35.5924 66.3489 35.896 66.6279C36.6643 67.3337 36.5099 68.1345 36.5099 69.0933C36.5099 69.5875 36.3355 70.0289 36.1603 70.491C35.8931 71.1958 35.7343 71.9342 35.474 72.6389C35.3471 72.9827 35.1917 73.3614 35.1245 73.7191C35.0356 74.1916 34.6822 74.5854 34.5575 75.0508C34.4872 75.313 34.1802 76.0936 34.4552 76.333C34.6742 76.5236 35.61 76.3241 35.8193 76.2175C36.2165 76.0154 36.1687 75.5992 36.4502 75.327C36.6935 75.0918 37.0163 75.9499 37.0641 76.0526C37.2783 76.5131 37.4016 76.8033 38.0062 76.8648C38.3157 76.8963 38.6259 76.8357 38.9312 76.9061C39.1424 76.9547 39.8704 77.1432 39.6517 76.7906C39.2055 76.0714 38.7878 75.3603 38.2918 74.6674C38.0466 74.3249 37.2411 74.4942 36.8509 74.4942C36.5979 74.4942 36.1509 74.5073 36.0666 74.1974C35.8356 73.3485 36.4765 72.1475 36.8339 71.431C37.5509 69.9933 38.0918 71.8967 38.3089 72.5565C38.4334 72.935 38.5364 73.1584 38.036 73.1584C37.7135 73.1584 37.3611 73.2241 37.2474 72.8575C37.0945 72.3647 37.1848 71.6759 37.354 71.2042C37.5511 70.6548 37.9087 70.0319 38.505 69.8313C39.105 69.6294 39.6315 69.9258 39.8691 70.4703C39.9251 70.5987 40.0717 71.1209 39.9458 71.2578C39.547 71.6917 38.2936 70.7283 38.0787 70.4951C37.3847 69.7421 37.2005 68.6143 37.2005 67.638C37.2005 67.0965 37.43 66.9537 37.9508 66.8505C39.4632 66.5509 40.9101 66.8271 41.4847 68.3553C41.5613 68.5589 41.8041 69.1954 41.6339 69.4149C41.2896 69.8589 39.7166 68.6278 39.4897 68.4502C38.4163 67.6098 38.4531 65.7361 39.9501 65.3374C41.3704 64.9592 42.673 65.7554 43.1388 67.0567C43.2754 67.4384 43.1866 67.786 42.7594 67.873C41.4105 68.1476 41.2463 65.8064 41.0542 64.9705C40.8851 64.2348 38.7705 64.775 38.36 64.8468C36.7773 65.1238 35.4753 65.0379 34.1056 64.1872C33.5503 63.8423 33.1643 63.713 32.5198 63.643C32.1141 63.5989 31.6792 63.5105 31.3347 63.2884C30.7325 62.9001 29.9881 62.5033 29.297 62.2907C29.052 62.2153 28.8075 62.2857 28.5723 62.1752C28.0613 61.9352 27.8868 61.3109 27.6473 60.8477C27.5709 60.6999 27.1139 60.0973 27.2764 60.0973C28.5445 60.0973 29.7884 60.5691 30.9766 60.9549C33.1836 61.6715 35.3078 62.9552 37.6779 62.9916C39.1094 63.0135 40.6003 63.2145 42.0176 62.9009C43.048 62.6728 43.9734 62.1768 44.9505 61.8207C45.9328 61.4627 46.8828 61.2847 47.926 61.2847C48.8603 61.2847 49.5531 60.8011 50.3601 60.3983C51.0932 60.0324 51.8548 59.7705 52.547 59.314C53.471 58.7047 54.0696 57.7084 55.011 57.0877C55.5928 56.704 56 56.0848 56 55.385C56 55.2668 56 55.1486 56 55.0304C56 54.8805 55.947 55.3259 55.9105 55.4715C55.7631 56.0594 55.6463 56.6591 55.4288 57.2279C55.2549 57.6825 55.0174 58.2277 54.6529 58.5801C54.443 58.7832 54.1601 58.8955 53.9282 59.0749C53.4304 59.46 52.9801 59.8938 52.4532 60.2622C52.042 60.5499 51.6538 60.8366 51.2042 61.0621C50.7678 61.2809 50.2792 61.3598 49.8273 61.5403C49.155 61.8089 48.4962 62.2198 47.8535 62.5545C47.1972 62.8964 46.538 63.1002 45.8031 63.2142C44.9278 63.3499 44.0269 63.2007 43.288 63.7089C42.5203 64.2369 41.3903 64.7898 40.4233 64.5459C39.7082 64.3654 39.0361 64.0808 38.2833 64.1212C37.2865 64.1748 36.098 64.3879 35.2054 63.9563" stroke="white" stroke-width="3" stroke-linecap="round"/>
<path d="M40.3042 77.8354C39.7378 77.8354 39.1652 77.8721 38.6066 77.7754C38.2344 77.711 37.9523 77.5493 37.6034 77.4496C37.0729 77.298 36.5874 76.9866 36.0214 76.9866C35.6163 76.9866 35.7514 76.3833 35.7514 76.0992C35.7514 74.939 36.5692 74.1817 37.2175 73.3254C37.5006 72.9516 37.7338 72.5337 38.105 72.2451C38.3825 72.0292 38.2979 72.3467 38.2979 72.588C38.2979 72.9207 38.2794 73.259 38.2979 73.5912C38.3119 73.8442 38.8824 72.9043 38.9238 72.8538C39.6744 71.9391 40.5649 70.9403 41.5304 70.243C42.1959 69.7624 42.8373 69.2696 43.3138 68.5925C43.4778 68.3594 43.6395 68.2094 43.7039 67.9194C43.7414 67.7507 43.9462 67.271 43.7768 67.1863" stroke="white" stroke-width="2" stroke-linecap="round"/>
<path d="M24.4077 58.8522C24.4077 59.4638 24.4077 60.0755 24.4077 60.6871C24.4077 61.0254 24.2878 61.6306 24.4248 61.9389C24.5963 62.3248 24.9029 62.8241 24.9478 63.2508C25.0127 63.8672 25.839 64.3074 26.294 64.5969C27.1206 65.1229 28.1615 65.214 29.0377 65.5829C30.1895 66.0679 31.3821 65.9733 32.5746 66.2217C34.1045 66.5404 35.3776 67.0744 36.3644 68.3695C36.7807 68.9161 36.5858 70.7225 36.1757 71.3148C35.9271 71.6739 35.6232 71.9682 35.3655 72.3179C35.2501 72.4745 35.0207 72.7612 34.8167 72.8195C34.1877 72.9993 33.5877 73.5541 33.2991 74.1314C33.0093 74.7109 32.8961 75.0844 32.8961 75.7519C32.8961 75.9913 32.8139 76.2756 33.1276 76.2921C33.5663 76.3152 34.1278 76.2786 34.5552 76.3735C35.4526 76.573 35.4365 78.1441 36.4458 78.1441" stroke="white" stroke-width="2" stroke-linecap="round"/>
<ellipse cx="28" cy="30.5" rx="4" ry="8.5" fill="#5CC780"/>
<ellipse cx="49" cy="30.5" rx="4" ry="8.5" fill="#5CC780"/>
<circle cx="38" cy="39" r="3" fill="#5CC780"/>
<circle cx="29" cy="28" r="3" fill="white"/>
<circle cx="51" cy="28" r="3" fill="white"/>
<path d="M20 42.1L24 40L26 43L30 40.9L33 43" stroke="#5CC780" stroke-width="2"/>
<path d="M57 42.1L53 40L51 43L47 40.9L44 43" stroke="#5CC780" stroke-width="2"/>
<path d="M44.2295 50C43.6593 50.3385 43.1248 50.8745 42.7755 51.3671C42.526 51.7189 42.0969 52.0116 42.0969 52.4346C42.0969 52.83 42 53.2365 42 53.6456C42 54.215 42.2327 54.599 42.5062 55.1055C42.6145 55.306 43.3113 55.6765 43.5725 55.7553C44.2679 55.9648 44.9034 56 45.6567 56C46.5671 56 47.3515 55.5877 48.0532 55.1688C48.3783 54.9747 49.1338 54.5555 48.9795 54.2532" stroke="#5CC780" stroke-width="2" stroke-linecap="round"/>
<path d="M33.7705 50C34.3407 50.3385 34.8752 50.8745 35.2245 51.3671C35.474 51.7189 35.9031 52.0116 35.9031 52.4346C35.9031 52.83 36 53.2365 36 53.6456C36 54.215 35.7673 54.599 35.4938 55.1055C35.3855 55.306 34.6887 55.6765 34.4275 55.7553C33.7321 55.9648 33.0966 56 32.3433 56C31.4329 56 30.6485 55.5877 29.9468 55.1688C29.6217 54.9747 28.8662 54.5555 29.0205 54.2532" stroke="#5CC780" stroke-width="2" stroke-linecap="round"/>
<rect x="40.1533" y="8" width="1" height="4.49842" transform="rotate(29.6734 40.1533 8)" fill="#5CC780"/>
<rect x="46.3411" y="11" width="1" height="8.43454" transform="rotate(86.3939 46.3411 11)" fill="#5CC780"/>
<rect x="55.0471" y="21.4017" width="1" height="8.91427" transform="rotate(153.711 55.0471 21.4017)" fill="#5CC780"/>
<rect x="56.1533" y="17" width="1" height="4.3496" transform="rotate(29.6734 56.1533 17)" fill="#5CC780"/>
<rect x="55.4231" y="20.2601" width="1" height="2.45287" transform="rotate(35.4615 55.4231 20.2601)" fill="white"/>
<rect x="37.4375" y="9.97903" width="1" height="2.45287" transform="rotate(12.2918 37.4375 9.97903)" fill="white"/>
<path d="M50.0893 11.9313L54.493 20.7552L59.844 10.4819L50.0893 11.9313Z" fill="white"/>
<path d="M48.5668 11.2128L38.7422 12.0677L44.7065 2.13803L48.5668 11.2128Z" fill="white"/>
<ellipse cx="49.2145" cy="11.5831" rx="2.77053" ry="3.5" transform="rotate(25.243 49.2145 11.5831)" fill="#5CC780"/>
<ellipse cx="49.2728" cy="11.6298" rx="2.27161" ry="2.92521" transform="rotate(25.243 49.2728 11.6298)" fill="white"/>
<rect x="3.00952" y="23.2375" width="6.42493" height="16.8243" transform="rotate(-64.5367 3.00952 23.2375)" fill="white"/>
<rect x="10.4048" y="62.2549" width="6.42493" height="16.8243" transform="rotate(-111.98 10.4048 62.2549)" fill="white"/>
<rect width="6.42493" height="16.8243" transform="matrix(0.374276 -0.927318 -0.927318 -0.374276 69.6016 62.2549)" fill="white"/>
<rect width="2.77946" height="20.1787" transform="matrix(-0.360397 -0.932799 -0.932799 0.360397 76.8245 29.5927)" fill="white"/>
<rect x="1" y="29.5927" width="2.77946" height="20.1787" transform="rotate(-68.8754 1 29.5927)" fill="white"/>
<rect width="6.42493" height="16.8243" transform="matrix(-0.429933 -0.902861 -0.902861 0.429933 74.9524 22.8008)" fill="white"/>
</svg>
